<mxfile host="app.diagrams.net" modified="2022-08-12T23:28:27.003Z" agent="5.0 (Windows NT 10.0; Win64; x64) AppleWebKit/537.36 (KHTML, like Gecko) Chrome/104.0.5112.81 Safari/537.36" etag="qSHxn70jFzzJYo3gSkDV" version="20.2.3" type="github">
  <diagram id="C5RBs43oDa-KdzZeNtuy" name="Page-1">
    <mxGraphModel dx="1038" dy="575" grid="1" gridSize="10" guides="1" tooltips="1" connect="1" arrows="1" fold="1" page="1" pageScale="1" pageWidth="827" pageHeight="1169" math="0" shadow="0">
      <root>
        <mxCell id="WIyWlLk6GJQsqaUBKTNV-0" />
        <mxCell id="WIyWlLk6GJQsqaUBKTNV-1" parent="WIyWlLk6GJQsqaUBKTNV-0" />
        <mxCell id="WzKL0s8CQ_AdMi2l-6hD-6" style="edgeStyle=orthogonalEdgeStyle;rounded=0;orthogonalLoop=1;jettySize=auto;html=1;exitX=0.5;exitY=0;exitDx=0;exitDy=0;entryX=0;entryY=0.5;entryDx=0;entryDy=0;" parent="WIyWlLk6GJQsqaUBKTNV-1" target="WzKL0s8CQ_AdMi2l-6hD-3" edge="1">
          <mxGeometry relative="1" as="geometry">
            <mxPoint x="290" y="225" as="sourcePoint" />
          </mxGeometry>
        </mxCell>
        <mxCell id="WzKL0s8CQ_AdMi2l-6hD-7" style="edgeStyle=orthogonalEdgeStyle;rounded=0;orthogonalLoop=1;jettySize=auto;html=1;exitX=0.5;exitY=1;exitDx=0;exitDy=0;entryX=0;entryY=0.5;entryDx=0;entryDy=0;" parent="WIyWlLk6GJQsqaUBKTNV-1" target="WzKL0s8CQ_AdMi2l-6hD-4" edge="1">
          <mxGeometry relative="1" as="geometry">
            <mxPoint x="290" y="265" as="sourcePoint" />
          </mxGeometry>
        </mxCell>
        <mxCell id="WzKL0s8CQ_AdMi2l-6hD-19" style="edgeStyle=orthogonalEdgeStyle;rounded=0;orthogonalLoop=1;jettySize=auto;html=1;exitX=0.5;exitY=0;exitDx=0;exitDy=0;entryX=0;entryY=0.5;entryDx=0;entryDy=0;" parent="WIyWlLk6GJQsqaUBKTNV-1" target="WzKL0s8CQ_AdMi2l-6hD-8" edge="1">
          <mxGeometry relative="1" as="geometry">
            <mxPoint x="290" y="225" as="sourcePoint" />
          </mxGeometry>
        </mxCell>
        <mxCell id="WzKL0s8CQ_AdMi2l-6hD-11" style="edgeStyle=orthogonalEdgeStyle;rounded=0;orthogonalLoop=1;jettySize=auto;html=1;entryX=0.5;entryY=0;entryDx=0;entryDy=0;" parent="WIyWlLk6GJQsqaUBKTNV-1" source="WzKL0s8CQ_AdMi2l-6hD-3" target="WzKL0s8CQ_AdMi2l-6hD-4" edge="1">
          <mxGeometry relative="1" as="geometry" />
        </mxCell>
        <mxCell id="WzKL0s8CQ_AdMi2l-6hD-17" style="edgeStyle=orthogonalEdgeStyle;rounded=0;orthogonalLoop=1;jettySize=auto;html=1;exitX=0.5;exitY=0;exitDx=0;exitDy=0;entryX=0.5;entryY=1;entryDx=0;entryDy=0;" parent="WIyWlLk6GJQsqaUBKTNV-1" source="WzKL0s8CQ_AdMi2l-6hD-3" target="WzKL0s8CQ_AdMi2l-6hD-8" edge="1">
          <mxGeometry relative="1" as="geometry" />
        </mxCell>
        <mxCell id="WzKL0s8CQ_AdMi2l-6hD-3" value="Back-End&lt;br&gt;(REST API)" style="rounded=1;whiteSpace=wrap;html=1;" parent="WIyWlLk6GJQsqaUBKTNV-1" vertex="1">
          <mxGeometry x="390" y="150" width="120" height="60" as="geometry" />
        </mxCell>
        <mxCell id="WzKL0s8CQ_AdMi2l-6hD-12" style="edgeStyle=orthogonalEdgeStyle;rounded=0;orthogonalLoop=1;jettySize=auto;html=1;exitX=0.5;exitY=0;exitDx=0;exitDy=0;" parent="WIyWlLk6GJQsqaUBKTNV-1" source="WzKL0s8CQ_AdMi2l-6hD-4" edge="1">
          <mxGeometry relative="1" as="geometry">
            <mxPoint x="450" y="210" as="targetPoint" />
          </mxGeometry>
        </mxCell>
        <mxCell id="WzKL0s8CQ_AdMi2l-6hD-26" style="edgeStyle=orthogonalEdgeStyle;rounded=0;orthogonalLoop=1;jettySize=auto;html=1;exitX=1;exitY=0.5;exitDx=0;exitDy=0;entryX=0.5;entryY=0.5;entryDx=0;entryDy=0;entryPerimeter=0;" parent="WIyWlLk6GJQsqaUBKTNV-1" source="WzKL0s8CQ_AdMi2l-6hD-4" target="WzKL0s8CQ_AdMi2l-6hD-21" edge="1">
          <mxGeometry relative="1" as="geometry" />
        </mxCell>
        <mxCell id="WzKL0s8CQ_AdMi2l-6hD-4" value="Front-End&lt;br&gt;(SPA)" style="rounded=1;whiteSpace=wrap;html=1;" parent="WIyWlLk6GJQsqaUBKTNV-1" vertex="1">
          <mxGeometry x="390" y="280" width="120" height="60" as="geometry" />
        </mxCell>
        <mxCell id="WzKL0s8CQ_AdMi2l-6hD-18" style="edgeStyle=orthogonalEdgeStyle;rounded=0;orthogonalLoop=1;jettySize=auto;html=1;exitX=0.5;exitY=1;exitDx=0;exitDy=0;entryX=0.5;entryY=0;entryDx=0;entryDy=0;" parent="WIyWlLk6GJQsqaUBKTNV-1" source="WzKL0s8CQ_AdMi2l-6hD-8" target="WzKL0s8CQ_AdMi2l-6hD-3" edge="1">
          <mxGeometry relative="1" as="geometry" />
        </mxCell>
        <mxCell id="WzKL0s8CQ_AdMi2l-6hD-8" value="BANCO DE DADOS&lt;br&gt;(MySQL)" style="rounded=1;whiteSpace=wrap;html=1;" parent="WIyWlLk6GJQsqaUBKTNV-1" vertex="1">
          <mxGeometry x="390" y="10" width="120" height="60" as="geometry" />
        </mxCell>
        <mxCell id="WzKL0s8CQ_AdMi2l-6hD-20" value="" style="edgeStyle=orthogonalEdgeStyle;rounded=0;orthogonalLoop=1;jettySize=auto;html=1;" parent="WIyWlLk6GJQsqaUBKTNV-1" source="WzKL0s8CQ_AdMi2l-6hD-15" edge="1">
          <mxGeometry relative="1" as="geometry">
            <mxPoint x="230" y="245" as="targetPoint" />
          </mxGeometry>
        </mxCell>
        <mxCell id="WzKL0s8CQ_AdMi2l-6hD-15" value="CONTAINERS&lt;br&gt;(Docker)" style="rounded=1;whiteSpace=wrap;html=1;" parent="WIyWlLk6GJQsqaUBKTNV-1" vertex="1">
          <mxGeometry x="30" y="215" width="120" height="60" as="geometry" />
        </mxCell>
        <mxCell id="WzKL0s8CQ_AdMi2l-6hD-27" style="edgeStyle=orthogonalEdgeStyle;rounded=0;orthogonalLoop=1;jettySize=auto;html=1;exitX=0.5;exitY=0.5;exitDx=0;exitDy=0;exitPerimeter=0;entryX=1;entryY=0.5;entryDx=0;entryDy=0;" parent="WIyWlLk6GJQsqaUBKTNV-1" source="WzKL0s8CQ_AdMi2l-6hD-21" target="WzKL0s8CQ_AdMi2l-6hD-4" edge="1">
          <mxGeometry relative="1" as="geometry" />
        </mxCell>
        <mxCell id="WzKL0s8CQ_AdMi2l-6hD-21" value="Actor" style="shape=umlActor;verticalLabelPosition=bottom;verticalAlign=top;html=1;outlineConnect=0;" parent="WIyWlLk6GJQsqaUBKTNV-1" vertex="1">
          <mxGeometry x="620" y="280" width="30" height="60" as="geometry" />
        </mxCell>
        <mxCell id="J2hrj--drxeEzNVRbDr3-0" value="&lt;font style=&quot;font-size: 20px;&quot;&gt;SEGURANÃ‡A&lt;/font&gt;" style="text;html=1;strokeColor=none;fillColor=none;align=center;verticalAlign=middle;whiteSpace=wrap;rounded=0;" parent="WIyWlLk6GJQsqaUBKTNV-1" vertex="1">
          <mxGeometry x="151" y="370" width="100" height="50" as="geometry" />
        </mxCell>
        <mxCell id="J2hrj--drxeEzNVRbDr3-5" style="edgeStyle=orthogonalEdgeStyle;rounded=0;orthogonalLoop=1;jettySize=auto;html=1;exitX=1;exitY=0.5;exitDx=0;exitDy=0;entryX=0;entryY=0.5;entryDx=0;entryDy=0;" parent="WIyWlLk6GJQsqaUBKTNV-1" target="J2hrj--drxeEzNVRbDr3-4" edge="1">
          <mxGeometry relative="1" as="geometry">
            <mxPoint x="244" y="510" as="sourcePoint" />
          </mxGeometry>
        </mxCell>
        <mxCell id="zU_Zac-X1jJQblTpyH3_-4" value="" style="edgeStyle=orthogonalEdgeStyle;rounded=0;orthogonalLoop=1;jettySize=auto;html=1;" edge="1" parent="WIyWlLk6GJQsqaUBKTNV-1" source="J2hrj--drxeEzNVRbDr3-2" target="J2hrj--drxeEzNVRbDr3-4">
          <mxGeometry relative="1" as="geometry" />
        </mxCell>
        <mxCell id="J2hrj--drxeEzNVRbDr3-2" value="Autenticar" style="triangle;whiteSpace=wrap;html=1;" parent="WIyWlLk6GJQsqaUBKTNV-1" vertex="1">
          <mxGeometry x="124" y="470" width="120" height="80" as="geometry" />
        </mxCell>
        <mxCell id="J2hrj--drxeEzNVRbDr3-10" style="edgeStyle=orthogonalEdgeStyle;rounded=0;orthogonalLoop=1;jettySize=auto;html=1;exitX=1;exitY=0.5;exitDx=0;exitDy=0;entryX=1;entryY=0.5;entryDx=0;entryDy=0;" parent="WIyWlLk6GJQsqaUBKTNV-1" source="J2hrj--drxeEzNVRbDr3-3" target="J2hrj--drxeEzNVRbDr3-9" edge="1">
          <mxGeometry relative="1" as="geometry" />
        </mxCell>
        <mxCell id="J2hrj--drxeEzNVRbDr3-17" style="edgeStyle=orthogonalEdgeStyle;rounded=0;orthogonalLoop=1;jettySize=auto;html=1;exitX=0;exitY=0.5;exitDx=0;exitDy=0;entryX=0.5;entryY=1;entryDx=0;entryDy=0;" parent="WIyWlLk6GJQsqaUBKTNV-1" source="J2hrj--drxeEzNVRbDr3-3" target="J2hrj--drxeEzNVRbDr3-4" edge="1">
          <mxGeometry relative="1" as="geometry">
            <Array as="points">
              <mxPoint x="574" y="520" />
              <mxPoint x="489" y="520" />
              <mxPoint x="489" y="560" />
              <mxPoint x="344" y="560" />
            </Array>
          </mxGeometry>
        </mxCell>
        <mxCell id="J2hrj--drxeEzNVRbDr3-3" value="Back-End&lt;br&gt;(REST API)" style="rounded=1;whiteSpace=wrap;html=1;" parent="WIyWlLk6GJQsqaUBKTNV-1" vertex="1">
          <mxGeometry x="574" y="480" width="120" height="60" as="geometry" />
        </mxCell>
        <mxCell id="J2hrj--drxeEzNVRbDr3-6" style="edgeStyle=orthogonalEdgeStyle;rounded=0;orthogonalLoop=1;jettySize=auto;html=1;exitX=1;exitY=0.5;exitDx=0;exitDy=0;entryX=0;entryY=0;entryDx=0;entryDy=0;" parent="WIyWlLk6GJQsqaUBKTNV-1" source="J2hrj--drxeEzNVRbDr3-4" target="J2hrj--drxeEzNVRbDr3-3" edge="1">
          <mxGeometry relative="1" as="geometry">
            <Array as="points">
              <mxPoint x="489" y="510" />
              <mxPoint x="489" y="480" />
            </Array>
          </mxGeometry>
        </mxCell>
        <mxCell id="J2hrj--drxeEzNVRbDr3-4" value="Front-End&lt;br&gt;(SPA)" style="rounded=1;whiteSpace=wrap;html=1;" parent="WIyWlLk6GJQsqaUBKTNV-1" vertex="1">
          <mxGeometry x="284" y="480" width="120" height="60" as="geometry" />
        </mxCell>
        <mxCell id="J2hrj--drxeEzNVRbDr3-8" value="Envia os dados de login" style="text;html=1;strokeColor=none;fillColor=none;align=center;verticalAlign=middle;whiteSpace=wrap;rounded=0;" parent="WIyWlLk6GJQsqaUBKTNV-1" vertex="1">
          <mxGeometry x="418" y="460" width="60" height="30" as="geometry" />
        </mxCell>
        <mxCell id="J2hrj--drxeEzNVRbDr3-13" style="edgeStyle=orthogonalEdgeStyle;rounded=0;orthogonalLoop=1;jettySize=auto;html=1;exitX=0;exitY=0.5;exitDx=0;exitDy=0;entryX=0.442;entryY=1.033;entryDx=0;entryDy=0;entryPerimeter=0;" parent="WIyWlLk6GJQsqaUBKTNV-1" source="J2hrj--drxeEzNVRbDr3-9" target="J2hrj--drxeEzNVRbDr3-3" edge="1">
          <mxGeometry relative="1" as="geometry" />
        </mxCell>
        <mxCell id="J2hrj--drxeEzNVRbDr3-9" value="BANCO DE DADOS&lt;br&gt;(MySQL)" style="rounded=1;whiteSpace=wrap;html=1;" parent="WIyWlLk6GJQsqaUBKTNV-1" vertex="1">
          <mxGeometry x="579" y="580" width="120" height="60" as="geometry" />
        </mxCell>
        <mxCell id="J2hrj--drxeEzNVRbDr3-12" value="Busca usuÃ¡rio Ãºnico" style="text;html=1;strokeColor=none;fillColor=none;align=center;verticalAlign=middle;whiteSpace=wrap;rounded=0;" parent="WIyWlLk6GJQsqaUBKTNV-1" vertex="1">
          <mxGeometry x="724" y="540" width="60" height="30" as="geometry" />
        </mxCell>
        <mxCell id="J2hrj--drxeEzNVRbDr3-14" value="Retorna o usuario achado e seus dados sensÃ­veis criptografados" style="text;html=1;strokeColor=none;fillColor=none;align=center;verticalAlign=middle;whiteSpace=wrap;rounded=0;" parent="WIyWlLk6GJQsqaUBKTNV-1" vertex="1">
          <mxGeometry x="574" y="660" width="125" height="30" as="geometry" />
        </mxCell>
        <mxCell id="J2hrj--drxeEzNVRbDr3-15" style="edgeStyle=orthogonalEdgeStyle;rounded=0;orthogonalLoop=1;jettySize=auto;html=1;exitX=0.5;exitY=1;exitDx=0;exitDy=0;" parent="WIyWlLk6GJQsqaUBKTNV-1" source="J2hrj--drxeEzNVRbDr3-14" target="J2hrj--drxeEzNVRbDr3-14" edge="1">
          <mxGeometry relative="1" as="geometry" />
        </mxCell>
        <mxCell id="J2hrj--drxeEzNVRbDr3-16" value="Compara as criptografias" style="text;html=1;strokeColor=none;fillColor=none;align=center;verticalAlign=middle;whiteSpace=wrap;rounded=0;" parent="WIyWlLk6GJQsqaUBKTNV-1" vertex="1">
          <mxGeometry x="494" y="570" width="60" height="30" as="geometry" />
        </mxCell>
        <mxCell id="J2hrj--drxeEzNVRbDr3-18" value="Permite ou nega o acesso" style="text;html=1;strokeColor=none;fillColor=none;align=center;verticalAlign=middle;whiteSpace=wrap;rounded=0;" parent="WIyWlLk6GJQsqaUBKTNV-1" vertex="1">
          <mxGeometry x="334" y="570" width="60" height="30" as="geometry" />
        </mxCell>
        <mxCell id="J2hrj--drxeEzNVRbDr3-22" style="edgeStyle=orthogonalEdgeStyle;rounded=0;orthogonalLoop=1;jettySize=auto;html=1;exitX=1;exitY=0.5;exitDx=0;exitDy=0;entryX=0;entryY=0.5;entryDx=0;entryDy=0;" parent="WIyWlLk6GJQsqaUBKTNV-1" source="J2hrj--drxeEzNVRbDr3-20" target="J2hrj--drxeEzNVRbDr3-21" edge="1">
          <mxGeometry relative="1" as="geometry" />
        </mxCell>
        <mxCell id="J2hrj--drxeEzNVRbDr3-20" value="Gerar usuario" style="triangle;whiteSpace=wrap;html=1;" parent="WIyWlLk6GJQsqaUBKTNV-1" vertex="1">
          <mxGeometry x="114" y="770" width="120" height="80" as="geometry" />
        </mxCell>
        <mxCell id="J2hrj--drxeEzNVRbDr3-25" style="edgeStyle=orthogonalEdgeStyle;rounded=0;orthogonalLoop=1;jettySize=auto;html=1;exitX=1;exitY=0.5;exitDx=0;exitDy=0;entryX=0;entryY=0.5;entryDx=0;entryDy=0;" parent="WIyWlLk6GJQsqaUBKTNV-1" source="J2hrj--drxeEzNVRbDr3-21" target="J2hrj--drxeEzNVRbDr3-24" edge="1">
          <mxGeometry relative="1" as="geometry" />
        </mxCell>
        <mxCell id="J2hrj--drxeEzNVRbDr3-21" value="Front-End&lt;br&gt;(SPA)" style="rounded=1;whiteSpace=wrap;html=1;" parent="WIyWlLk6GJQsqaUBKTNV-1" vertex="1">
          <mxGeometry x="274" y="780" width="120" height="60" as="geometry" />
        </mxCell>
        <mxCell id="J2hrj--drxeEzNVRbDr3-28" style="edgeStyle=orthogonalEdgeStyle;rounded=0;orthogonalLoop=1;jettySize=auto;html=1;exitX=1;exitY=0.5;exitDx=0;exitDy=0;entryX=0.5;entryY=0;entryDx=0;entryDy=0;" parent="WIyWlLk6GJQsqaUBKTNV-1" source="J2hrj--drxeEzNVRbDr3-24" target="J2hrj--drxeEzNVRbDr3-27" edge="1">
          <mxGeometry relative="1" as="geometry" />
        </mxCell>
        <mxCell id="J2hrj--drxeEzNVRbDr3-36" style="edgeStyle=orthogonalEdgeStyle;rounded=0;orthogonalLoop=1;jettySize=auto;html=1;exitX=0;exitY=1;exitDx=0;exitDy=0;entryX=0.25;entryY=1;entryDx=0;entryDy=0;" parent="WIyWlLk6GJQsqaUBKTNV-1" source="J2hrj--drxeEzNVRbDr3-24" target="J2hrj--drxeEzNVRbDr3-21" edge="1">
          <mxGeometry relative="1" as="geometry" />
        </mxCell>
        <mxCell id="J2hrj--drxeEzNVRbDr3-24" value="Back-End&lt;br&gt;(REST API)" style="rounded=1;whiteSpace=wrap;html=1;" parent="WIyWlLk6GJQsqaUBKTNV-1" vertex="1">
          <mxGeometry x="478" y="780" width="120" height="60" as="geometry" />
        </mxCell>
        <mxCell id="J2hrj--drxeEzNVRbDr3-26" value="Envia os dados de registro" style="text;html=1;strokeColor=none;fillColor=none;align=center;verticalAlign=middle;whiteSpace=wrap;rounded=0;" parent="WIyWlLk6GJQsqaUBKTNV-1" vertex="1">
          <mxGeometry x="404" y="750" width="60" height="30" as="geometry" />
        </mxCell>
        <mxCell id="J2hrj--drxeEzNVRbDr3-33" style="edgeStyle=orthogonalEdgeStyle;rounded=0;orthogonalLoop=1;jettySize=auto;html=1;exitX=0;exitY=0.5;exitDx=0;exitDy=0;entryX=0.5;entryY=1;entryDx=0;entryDy=0;" parent="WIyWlLk6GJQsqaUBKTNV-1" source="J2hrj--drxeEzNVRbDr3-27" target="J2hrj--drxeEzNVRbDr3-24" edge="1">
          <mxGeometry relative="1" as="geometry" />
        </mxCell>
        <mxCell id="J2hrj--drxeEzNVRbDr3-27" value="BANCO DE DADOS&lt;br&gt;(MySQL)" style="rounded=1;whiteSpace=wrap;html=1;" parent="WIyWlLk6GJQsqaUBKTNV-1" vertex="1">
          <mxGeometry x="584" y="880" width="120" height="60" as="geometry" />
        </mxCell>
        <mxCell id="J2hrj--drxeEzNVRbDr3-29" value="Executa a criptografia dos dados sensÃ­veis" style="text;html=1;strokeColor=none;fillColor=none;align=center;verticalAlign=middle;whiteSpace=wrap;rounded=0;" parent="WIyWlLk6GJQsqaUBKTNV-1" vertex="1">
          <mxGeometry x="621.5" y="760" width="60" height="30" as="geometry" />
        </mxCell>
        <mxCell id="J2hrj--drxeEzNVRbDr3-30" value="Executa a criptografia dos dados sensÃ­veis" style="text;html=1;strokeColor=none;fillColor=none;align=center;verticalAlign=middle;whiteSpace=wrap;rounded=0;" parent="WIyWlLk6GJQsqaUBKTNV-1" vertex="1">
          <mxGeometry x="644" y="430" width="60" height="30" as="geometry" />
        </mxCell>
        <mxCell id="J2hrj--drxeEzNVRbDr3-32" value="Salva os dados do usuario e o sensÃ­veis criptografados" style="text;html=1;strokeColor=none;fillColor=none;align=center;verticalAlign=middle;whiteSpace=wrap;rounded=0;" parent="WIyWlLk6GJQsqaUBKTNV-1" vertex="1">
          <mxGeometry x="579" y="950" width="140" height="30" as="geometry" />
        </mxCell>
        <mxCell id="J2hrj--drxeEzNVRbDr3-35" value="Retorna o registro criado" style="text;html=1;strokeColor=none;fillColor=none;align=center;verticalAlign=middle;whiteSpace=wrap;rounded=0;" parent="WIyWlLk6GJQsqaUBKTNV-1" vertex="1">
          <mxGeometry x="464" y="895" width="60" height="30" as="geometry" />
        </mxCell>
        <mxCell id="J2hrj--drxeEzNVRbDr3-37" value="Retorna uma instancia do novo registro" style="text;html=1;strokeColor=none;fillColor=none;align=center;verticalAlign=middle;whiteSpace=wrap;rounded=0;" parent="WIyWlLk6GJQsqaUBKTNV-1" vertex="1">
          <mxGeometry x="304" y="870" width="110" height="30" as="geometry" />
        </mxCell>
        <mxCell id="zU_Zac-X1jJQblTpyH3_-3" style="edgeStyle=orthogonalEdgeStyle;rounded=0;orthogonalLoop=1;jettySize=auto;html=1;entryX=0;entryY=0.5;entryDx=0;entryDy=0;" edge="1" parent="WIyWlLk6GJQsqaUBKTNV-1" source="zU_Zac-X1jJQblTpyH3_-0" target="J2hrj--drxeEzNVRbDr3-2">
          <mxGeometry relative="1" as="geometry" />
        </mxCell>
        <mxCell id="zU_Zac-X1jJQblTpyH3_-0" value="Actor" style="shape=umlActor;verticalLabelPosition=bottom;verticalAlign=top;html=1;outlineConnect=0;" vertex="1" parent="WIyWlLk6GJQsqaUBKTNV-1">
          <mxGeometry x="44" y="480" width="30" height="60" as="geometry" />
        </mxCell>
        <mxCell id="zU_Zac-X1jJQblTpyH3_-5" value="1" style="text;html=1;align=center;verticalAlign=middle;resizable=0;points=[];autosize=1;strokeColor=none;fillColor=none;" vertex="1" parent="WIyWlLk6GJQsqaUBKTNV-1">
          <mxGeometry x="244" y="490" width="30" height="30" as="geometry" />
        </mxCell>
        <mxCell id="zU_Zac-X1jJQblTpyH3_-6" value="2" style="text;html=1;align=center;verticalAlign=middle;resizable=0;points=[];autosize=1;strokeColor=none;fillColor=none;" vertex="1" parent="WIyWlLk6GJQsqaUBKTNV-1">
          <mxGeometry x="403" y="480" width="30" height="30" as="geometry" />
        </mxCell>
        <mxCell id="zU_Zac-X1jJQblTpyH3_-7" value="3" style="text;html=1;align=center;verticalAlign=middle;resizable=0;points=[];autosize=1;strokeColor=none;fillColor=none;" vertex="1" parent="WIyWlLk6GJQsqaUBKTNV-1">
          <mxGeometry x="704" y="480" width="30" height="30" as="geometry" />
        </mxCell>
        <mxCell id="zU_Zac-X1jJQblTpyH3_-8" value="4" style="text;html=1;align=center;verticalAlign=middle;resizable=0;points=[];autosize=1;strokeColor=none;fillColor=none;" vertex="1" parent="WIyWlLk6GJQsqaUBKTNV-1">
          <mxGeometry x="544" y="610" width="30" height="30" as="geometry" />
        </mxCell>
        <mxCell id="zU_Zac-X1jJQblTpyH3_-9" value="5" style="text;html=1;align=center;verticalAlign=middle;resizable=0;points=[];autosize=1;strokeColor=none;fillColor=none;" vertex="1" parent="WIyWlLk6GJQsqaUBKTNV-1">
          <mxGeometry x="314" y="540" width="30" height="30" as="geometry" />
        </mxCell>
        <mxCell id="zU_Zac-X1jJQblTpyH3_-11" style="edgeStyle=orthogonalEdgeStyle;rounded=0;orthogonalLoop=1;jettySize=auto;html=1;entryX=0;entryY=0.5;entryDx=0;entryDy=0;" edge="1" parent="WIyWlLk6GJQsqaUBKTNV-1" source="zU_Zac-X1jJQblTpyH3_-10" target="J2hrj--drxeEzNVRbDr3-20">
          <mxGeometry relative="1" as="geometry" />
        </mxCell>
        <mxCell id="zU_Zac-X1jJQblTpyH3_-10" value="Actor" style="shape=umlActor;verticalLabelPosition=bottom;verticalAlign=top;html=1;outlineConnect=0;" vertex="1" parent="WIyWlLk6GJQsqaUBKTNV-1">
          <mxGeometry x="44" y="780" width="30" height="60" as="geometry" />
        </mxCell>
        <mxCell id="zU_Zac-X1jJQblTpyH3_-12" value="1" style="text;html=1;align=center;verticalAlign=middle;resizable=0;points=[];autosize=1;strokeColor=none;fillColor=none;" vertex="1" parent="WIyWlLk6GJQsqaUBKTNV-1">
          <mxGeometry x="234" y="770" width="30" height="30" as="geometry" />
        </mxCell>
        <mxCell id="zU_Zac-X1jJQblTpyH3_-13" value="2" style="text;html=1;align=center;verticalAlign=middle;resizable=0;points=[];autosize=1;strokeColor=none;fillColor=none;" vertex="1" parent="WIyWlLk6GJQsqaUBKTNV-1">
          <mxGeometry x="394" y="780" width="30" height="30" as="geometry" />
        </mxCell>
        <mxCell id="zU_Zac-X1jJQblTpyH3_-14" value="3" style="text;html=1;align=center;verticalAlign=middle;resizable=0;points=[];autosize=1;strokeColor=none;fillColor=none;" vertex="1" parent="WIyWlLk6GJQsqaUBKTNV-1">
          <mxGeometry x="594" y="780" width="30" height="30" as="geometry" />
        </mxCell>
        <mxCell id="zU_Zac-X1jJQblTpyH3_-15" value="4" style="text;html=1;align=center;verticalAlign=middle;resizable=0;points=[];autosize=1;strokeColor=none;fillColor=none;" vertex="1" parent="WIyWlLk6GJQsqaUBKTNV-1">
          <mxGeometry x="554" y="880" width="30" height="30" as="geometry" />
        </mxCell>
        <mxCell id="zU_Zac-X1jJQblTpyH3_-16" value="5" style="text;html=1;align=center;verticalAlign=middle;resizable=0;points=[];autosize=1;strokeColor=none;fillColor=none;" vertex="1" parent="WIyWlLk6GJQsqaUBKTNV-1">
          <mxGeometry x="274" y="840" width="30" height="30" as="geometry" />
        </mxCell>
        <mxCell id="zU_Zac-X1jJQblTpyH3_-17" value="Dados do usuÃ¡rio" style="text;html=1;strokeColor=none;fillColor=none;align=center;verticalAlign=middle;whiteSpace=wrap;rounded=0;fontSize=14;" vertex="1" parent="WIyWlLk6GJQsqaUBKTNV-1">
          <mxGeometry x="138" y="410" width="126" height="30" as="geometry" />
        </mxCell>
        <mxCell id="zU_Zac-X1jJQblTpyH3_-18" value="Servidor&lt;br&gt;(local)" style="shape=cylinder3;whiteSpace=wrap;html=1;boundedLbl=1;backgroundOutline=1;size=15;fontSize=14;" vertex="1" parent="WIyWlLk6GJQsqaUBKTNV-1">
          <mxGeometry x="234" y="205" width="60" height="80" as="geometry" />
        </mxCell>
      </root>
    </mxGraphModel>
  </diagram>
</mxfile>
